<svg id="首頁" xmlns="http://www.w3.org/2000/svg" viewBox="0 0 81.58 74.27"><defs><style>.cls-1{fill:#a25158;}</style></defs><title>icon_empty_like</title><g id="main"><path class="cls-1" d="M40.79,74.27,7.21,40.69a24.69,24.69,0,0,1,0-34.87C12.66.37,22.24-1.53,30,1.31A18.55,18.55,0,0,1,40.79,11.44,18.49,18.49,0,0,1,51.6,1.31C59.35-1.53,68.92.37,74.37,5.82a24.69,24.69,0,0,1,0,34.87ZM22.31,3.65A17.84,17.84,0,0,0,9.81,8.42a21,21,0,0,0,0,29.68l31,31,31-31a21,21,0,0,0,0-29.68c-4.49-4.49-12.43-6-18.91-3.66-6,2.2-9.64,7.39-10.24,14.61H39C38.36,12.15,34.72,7,28.72,4.76A18.63,18.63,0,0,0,22.31,3.65Z"/></g></svg>