<svg id="首頁" xmlns="http://www.w3.org/2000/svg" viewBox="0 0 53.28 62.8"><defs><style>.cls-1{fill:#81c8aa;}.cls-2{fill:#fff;}</style></defs><title>icon_five</title><g id="main"><polygon class="cls-1" points="0 0 0 24.49 0 30.61 0 62.8 26.64 52.29 53.28 62.8 53.28 30.61 53.28 24.49 53.28 0 0 0"/><path class="cls-2" d="M31.9,39.17a7.49,7.49,0,0,1-5.6,2.33c-3.58,0-6-1.72-7.27-5.22l2.44-1.06c1,2.55,2.55,3.8,4.83,3.8A4.77,4.77,0,0,0,30,37.39a6.93,6.93,0,0,0,1.68-5c0-4-1.52-6.09-4.57-6.09a4.84,4.84,0,0,0-4.61,3.08H20.1V16.22H33.27v2.51H22.72v6.89a5.49,5.49,0,0,1,4.38-1.75,6.56,6.56,0,0,1,5.25,2.32,9.35,9.35,0,0,1,1.94,6.25A9.33,9.33,0,0,1,31.9,39.17Z"/></g></svg>