<svg id="首頁" xmlns="http://www.w3.org/2000/svg" viewBox="0 0 81.47 81.47"><defs><style>.cls-1{fill:#a25158;}</style></defs><title>icon_twitter</title><g id="footer"><path class="cls-1" d="M79.07,0H2.4A2.39,2.39,0,0,0,0,2.4V79.07a2.39,2.39,0,0,0,2.4,2.4H79.07a2.39,2.39,0,0,0,2.4-2.4V2.4A2.39,2.39,0,0,0,79.07,0ZM23.23,57.69l10.68-3.41c-2.26-3.07-8.72-2.05-5.93-8.12.08-.16-.73-.66-1.05-1.06-1.94-2.44-6.11-4.22-2.38-8.38.32-.36-.89-1.83-.95-2.81-.16-2.33-.05-4.67-.05-6.58L42.1,36.94c.71-2.8,1-4.09,1.38-5.37,1.71-6.06,7.39-8.62,13.25-6.26,2.2.88,4.68,1.06,7.37,1.63-.09.21-.54,1.29-1.06,2.51l2.22.13a3.19,3.19,0,0,1-.08,1C64,33.31,62.07,36,61.68,38.79,59.24,56.82,37.42,67.55,23.23,57.69Z"/></g></svg>