<svg id="首頁" xmlns="http://www.w3.org/2000/svg" viewBox="0 0 81.47 81.47"><defs><style>.cls-1{fill:#a25158;}</style></defs><title>icon_ig</title><g id="footer"><path class="cls-1" d="M79.07,0H2.4A2.39,2.39,0,0,0,0,2.4V79.07a2.39,2.39,0,0,0,2.4,2.4H79.07a2.39,2.39,0,0,0,2.4-2.4V2.4A2.39,2.39,0,0,0,79.07,0ZM63.83,52.77C63.34,59.89,59.18,63.94,52,64.43a161.81,161.81,0,0,1-22,0c-7.79-.53-11.92-5.23-12.38-13-.19-3.31,0-6.65,0-10h0c0-2.81-.07-5.61,0-8.41C17.75,23.7,21.86,18.85,31,18.28a137.79,137.79,0,0,1,21.5.3c7,.66,10.87,4.71,11.32,11.64A169.69,169.69,0,0,1,63.83,52.77Z"/><path class="cls-1" d="M51.34,22.9c-6.64-.31-13.32-.33-20-.06-6.42.26-9,2.61-9.41,8.92a150,150,0,0,0,0,19.43c.45,6.5,3.22,8.74,9.9,9,3,.13,6,0,8.93,0v0c3.16,0,6.32.14,9.47,0,6.53-.34,9.12-2.89,9.3-9.52.18-6.48.19-13-.07-19.45C59.32,25.85,56.74,23.16,51.34,22.9ZM40.8,53.57a12.15,12.15,0,0,1-12-12.13,12,12,0,0,1,12.07-12A12.16,12.16,0,0,1,53,41.53,12.42,12.42,0,0,1,40.8,53.57Zm12.79-22c-1.17-.23-2.1-1.62-3.14-2.51.87-.9,1.72-2.52,2.61-2.54,1.14,0,2.31,1.23,4.33,2.46C55.54,30.28,54.41,31.7,53.59,31.54Z"/><path class="cls-1" d="M40.58,33.83a7.64,7.64,0,1,0,.52,15.28,7.64,7.64,0,0,0-.52-15.28Z"/></g></svg>