<svg id="首頁" xmlns="http://www.w3.org/2000/svg" viewBox="0 0 81.47 81.47"><defs><style>.cls-1{fill:#a25158;}</style></defs><title>icon_yt</title><g id="footer"><path class="cls-1" d="M79.07,0H2.4A2.39,2.39,0,0,0,0,2.4V79.07a2.39,2.39,0,0,0,2.4,2.4H79.07a2.39,2.39,0,0,0,2.4-2.4V2.4A2.39,2.39,0,0,0,79.07,0ZM63.69,49.19c-.1,5.17-2.54,7.64-7.8,7.8-5.08.16-10.16,0-15.24,0-4.9,0-9.8.1-14.7,0-5.58-.14-8.11-2.55-8.26-8s-.17-11.21,0-16.81c.15-4.78,2.79-7.45,7.65-7.48,10.33-.06,20.67-.11,31,0,4.83.07,7.24,2.69,7.35,7.65C63.81,38,63.8,43.59,63.69,49.19Z"/><path class="cls-1" d="M34.45,49,47,40.73,34.45,32.51Z"/></g></svg>