<svg id="首頁" xmlns="http://www.w3.org/2000/svg" viewBox="0 0 53.28 62.8"><defs><style>.cls-1{fill:#81c8aa;}.cls-2{fill:#fff;}</style></defs><title>icon_two</title><g id="main"><polygon class="cls-1" points="0 0 0 24.49 0 30.61 0 62.8 26.64 52.29 53.28 62.8 53.28 30.61 53.28 24.49 53.28 0 0 0"/><path class="cls-2" d="M32.54,27a34.56,34.56,0,0,1-4.07,4.31q-4.8,4.44-5.71,7.42h11.5v2.47H19.07a18.49,18.49,0,0,1,2.82-6.35,32,32,0,0,1,4.83-5.33,27.66,27.66,0,0,0,3.77-4,5.91,5.91,0,0,0,1.18-3.35,3.41,3.41,0,0,0-1.22-2.67,5.91,5.91,0,0,0-3.88-1.18c-3.12,0-4.8,2-5.07,6l-2.51-1a8.87,8.87,0,0,1,2.36-5.48,6.9,6.9,0,0,1,5.22-2,9.06,9.06,0,0,1,5.63,1.64,5.79,5.79,0,0,1,2.09,4.68A8.18,8.18,0,0,1,32.54,27Z"/></g></svg>