<svg id="首頁" xmlns="http://www.w3.org/2000/svg" viewBox="0 0 53.28 62.8"><defs><style>.cls-1{fill:#81c8aa;}.cls-2{fill:#fff;}</style></defs><title>icon_three</title><g id="main"><polygon class="cls-1" points="0 0 0 24.49 0 30.61 0 62.8 26.64 52.29 53.28 62.8 53.28 30.61 53.28 24.49 53.28 0 0 0"/><path class="cls-2" d="M32.09,39.52a8.22,8.22,0,0,1-5.6,2c-4.19,0-6.7-1.91-7.54-5.79l2.52-.87a4.6,4.6,0,0,0,5,4.18,5.34,5.34,0,0,0,3.77-1.33,4.22,4.22,0,0,0,1.45-3.2A5,5,0,0,0,30.34,31a4.88,4.88,0,0,0-3.47-1.41H23.94V27.11h2.55a4.22,4.22,0,0,0,3-1.52,4.58,4.58,0,0,0,1.45-3.16c0-2.71-1.41-4.08-4.23-4.08-2.43,0-3.92,1.34-4.38,4l-2.47-.8a7.36,7.36,0,0,1,2.09-4,6.71,6.71,0,0,1,4.76-1.71,7.08,7.08,0,0,1,5,1.79,6.37,6.37,0,0,1,1.82,4.76A6,6,0,0,1,30.07,28a6.35,6.35,0,0,1,3.16,2.48,7.25,7.25,0,0,1,1.14,4A6.42,6.42,0,0,1,32.09,39.52Z"/></g></svg>