<svg xmlns="http://www.w3.org/2000/svg" viewBox="0 0 54.55 49.59"><defs><style>.cls-1{fill:#9b5156;}</style></defs><title>icon_buy</title><g id="手機版本"><path class="cls-1" d="M42.15,2.48A2.49,2.49,0,0,0,39.67,0H14.88A2.49,2.49,0,0,0,12.4,2.48v5a2.48,2.48,0,1,0,5,0V5H37.19V7.44a2.48,2.48,0,1,0,5,0v-5Z"/><path class="cls-1" d="M0,44.63a5,5,0,0,0,5,5H49.59a5,5,0,0,0,5-5V29.75H0Z"/><path class="cls-1" d="M54.55,14.88a5,5,0,0,0-5-5H5a5,5,0,0,0-5,5v9.91H54.55ZM14.88,19.83a2.48,2.48,0,1,1,2.48-2.47A2.48,2.48,0,0,1,14.88,19.83Zm24.79,0a2.48,2.48,0,1,1,2.48-2.47A2.48,2.48,0,0,1,39.67,19.83Z"/></g></svg>