<svg id="首頁" xmlns="http://www.w3.org/2000/svg" viewBox="0 0 81.47 81.47"><defs><style>.cls-1{fill:#a25158;}</style></defs><title>icon_line</title><g id="footer"><path class="cls-1" d="M79.07,0H2.4A2.39,2.39,0,0,0,0,2.4V79.07a2.39,2.39,0,0,0,2.4,2.4H79.07a2.39,2.39,0,0,0,2.4-2.4V2.4A2.39,2.39,0,0,0,79.07,0ZM65.19,50.69C58.45,58.47,49.94,64,41,68.82a2.87,2.87,0,0,1-2.46.21c-.49-.37-.56-1.61-.45-2.42.74-5.27.76-5.18-4.48-6.24-8.89-1.79-16.16-6-20.52-14.3a19.44,19.44,0,0,1,2.52-21.73A29.92,29.92,0,0,1,35.23,13.77c1.84-.24,3.69-.4,4.72-.5,8.86.14,16.26,2.21,22.47,7.52C71.29,28.37,74.24,40.23,65.19,50.69Z"/><path class="cls-1" d="M47.81,30.58c-.47,0-1.07.74-1.31,1.29a4.52,4.52,0,0,0-.06,1.77v4.74l-.49.11c-.3-.34-.63-.65-.89-1-1.49-2-2.91-4.11-4.49-6.06a2.76,2.76,0,0,0-2-.82c-.35,0-1,.87-1,1.35-.09,3.78-.11,7.56,0,11.34A2,2,0,0,0,39,44.68c.54,0,1.22-.76,1.54-1.35s.06-1.17.06-1.77V36.38c.71.83,1,1.18,1.32,1.56,1.51,2,3,4,4.56,6a2.22,2.22,0,0,0,1.65.73,1.65,1.65,0,0,0,1-1.22c.08-3.9.09-7.79,0-11.69A1.8,1.8,0,0,0,47.81,30.58Z"/><path class="cls-1" d="M56.8,39.05a5.26,5.26,0,0,0,2-.07,6.15,6.15,0,0,0,1.51-1.39,7.38,7.38,0,0,0-1.59-1.29,5,5,0,0,0-1.78,0c-2.55,0-2.72-.24-2-3a20.49,20.49,0,0,0,3.67-.06,2.42,2.42,0,0,0,1.67-1.34c.29-1.09-.62-1.36-1.57-1.35-1.74,0-3.48,0-5.22,0-1.29,0-1.82.54-1.8,1.85,0,3.53,0,7.07,0,10.6,0,1.3.57,1.89,1.81,1.9a45.23,45.23,0,0,0,5.21-.06c.58-.07,1.09-.91,1.63-1.4-.54-.43-1-1.15-1.62-1.24a25.82,25.82,0,0,0-4-.06v-3Z"/><path class="cls-1" d="M24.74,42.05c-.06-.88-.14-1.58-.15-2.28,0-2.58.06-5.16-.07-7.73,0-.54-.78-1-1.21-1.56-.48.48-1.36.95-1.37,1.44-.12,3.77-.13,7.55,0,11.32a2.22,2.22,0,0,0,1.52,1.5,25.37,25.37,0,0,0,5.37,0c.62-.06,1.16-.86,1.74-1.33-.59-.46-1.12-1.21-1.76-1.31A25.94,25.94,0,0,0,24.74,42.05Z"/><path class="cls-1" d="M33.61,30.56a2.12,2.12,0,0,0-1.18,1.54c-.15,1.78,0,3.58,0,5.37s-.1,3.84.06,5.74c.05.56.82,1,1.26,1.58.45-.53,1.28-1,1.3-1.58.12-3.71.07-7.41,0-11.12C35.05,31.16,34.69,30.27,33.61,30.56Z"/></g></svg>