<svg id="首頁" xmlns="http://www.w3.org/2000/svg" viewBox="0 0 53.28 62.8"><defs><style>.cls-1{fill:#81c8aa;}.cls-2{fill:#fff;}</style></defs><title>icon_six</title><g id="main"><polygon class="cls-1" points="0 0 0 24.49 0 30.61 0 62.8 26.64 52.29 53.28 62.8 53.28 30.61 53.28 24.49 53.28 0 0 0"/><path class="cls-2" d="M32.92,38.76a7.7,7.7,0,0,1-6.13,2.74c-5.67,0-8.48-4.11-8.48-12.34,0-8.83,2.81-13.24,8.48-13.24a7.25,7.25,0,0,1,7.24,5l-2.55.87a7.7,7.7,0,0,0-1.56-2.4,4.93,4.93,0,0,0-3.13-.95c-3.53,0-5.48,3.16-5.82,9.44a8.65,8.65,0,0,1,6-2.43,7.94,7.94,0,0,1,6,2.24,7.72,7.72,0,0,1,2,5.52A8.36,8.36,0,0,1,32.92,38.76ZM31,29.2a5.2,5.2,0,0,0-4-1.6,7.45,7.45,0,0,0-3.43.92A6.75,6.75,0,0,0,21,30.61C21.2,36.24,23.14,39,26.79,39a5.16,5.16,0,0,0,4.12-1.86,6.27,6.27,0,0,0,1.4-4A5.76,5.76,0,0,0,31,29.2Z"/></g></svg>