<svg id="首頁" xmlns="http://www.w3.org/2000/svg" viewBox="0 0 281.57 85.13"><defs><style>.cls-1{fill:#6f1419;}.cls-2{fill:#fff;}.cls-3{fill:#5d0e12;}</style></defs><title>logo_KU_YUN</title><g id="圖層_23" data-name="圖層 23"><path class="cls-1" d="M104.6,49.2c3.4-.92,6.81-2.14,10.27-2.39,6.77-.5,5.84-1.72,5.94,5.74a5,5,0,0,1-.32,1c-1.75-.08-3.54-.11-5.32-.25s-2.72.52-2.66,2.51c.1,3.44.08,6.89,0,10.33-.05,2,.86,2.47,2.72,2.42q7.5-.21,15-.08c2.43,0,3.13-.46,3.16-2.89a73.8,73.8,0,0,1,.29-8.55c.4-3.12.29-3.44-2.95-3.19-6,.46-6.26.18-5.76-5.6,0-.42.12-.84.32-2.24,4.88,1,9.49,1.93,14.09,2.91,3.59.77,6.13-1.92,5.22-5.59H125.19c0-1.84,0-3.13,0-4.42,0-1.68-.65-2.69-2.39-2.72s-2.45,1-2.45,2.66c0,1.35,0,2.7,0,4.1-1.87.19-3.42.29-5,.51-3.94.55-7.89,1.05-11.8,1.78-1.55.3-3.2,1.31-2.66,3.19S103.15,49.59,104.6,49.2Zm24.75,7.55v7.93H116.7c.18-2.31.25-4.46.57-6.57a2,2,0,0,1,1.45-1.3C122.25,56.69,125.78,56.75,129.35,56.75Z"/><path class="cls-2" d="M115,68.79a2.79,2.79,0,0,1-2.09-.61,2.62,2.62,0,0,1-.59-2c.09-3.85.09-7.23,0-10.32a2.29,2.29,0,0,1,2.88-2.72c1.24.1,2.49.15,3.71.19l1.45.06c0-.14.09-.26.13-.36a1.38,1.38,0,0,0,.13-.45c0-.91,0-1.69,0-2.36,0-2,0-3-.39-3.34s-1.21-.24-2.75-.07c-.68.07-1.54.16-2.56.24A38.52,38.52,0,0,0,107,48.73c-.79.23-1.57.46-2.36.67l-.63.19a3.23,3.23,0,0,1-2.42.17,1.87,1.87,0,0,1-.87-1.25,2.31,2.31,0,0,1,.21-1.92,3.84,3.84,0,0,1,2.61-1.53c3.19-.6,6.45-1.05,9.6-1.48l2.21-.31c1-.14,2.11-.24,3.23-.34l1.57-.15V38.87a3,3,0,0,1,.73-2.22,2.52,2.52,0,0,1,1.85-.64h.08a2.61,2.61,0,0,1,1.93.71,3,3,0,0,1,.66,2.21c0,.86,0,1.74,0,2.76v1.45h19.37l0,.16a4.89,4.89,0,0,1-1,4.7,4.66,4.66,0,0,1-4.44,1.14c-3.21-.68-6.37-1.33-9.71-2l-4.16-.85c-.07.43-.12.76-.16,1-.07.48-.11.73-.13,1-.23,2.62-.31,4.26.37,5s2.17.65,5.16.42c1.66-.12,2.54-.1,3,.38s.39,1.44.18,3.05a51,51,0,0,0-.27,6.42c0,.7,0,1.4,0,2.1a3.35,3.35,0,0,1-.7,2.48,3.62,3.62,0,0,1-2.68.62c-4.87-.09-9.91-.06-15,.08Zm-.27-15.28a2.06,2.06,0,0,0-1.48.45,2.38,2.38,0,0,0-.51,1.86c.09,3.1.09,6.48,0,10.34a2.24,2.24,0,0,0,.46,1.72,2.69,2.69,0,0,0,2,.49c5.09-.14,10.15-.16,15-.07,1.29,0,2-.13,2.38-.51a3,3,0,0,0,.57-2.18c0-.7,0-1.4,0-2.1a50.18,50.18,0,0,1,.28-6.48c.19-1.44.27-2.34-.08-2.71s-1.15-.35-2.64-.24c-3.13.24-4.69.27-5.49-.54s-.75-2.29-.5-5.29c0-.26.07-.52.14-1,0-.31.11-.7.18-1.24l0-.22.22,0,4.38.9c3.35.69,6.51,1.33,9.71,2a4.27,4.27,0,0,0,4.06-1,4.43,4.43,0,0,0,.95-4.15H125V41.69c0-1,0-1.9,0-2.77a2.56,2.56,0,0,0-.55-1.91,2.21,2.21,0,0,0-1.63-.59,2.13,2.13,0,0,0-1.63.53,2.6,2.6,0,0,0-.61,1.92q0,1.38,0,2.79v1.49l-.18,0c-.62.07-1.2.12-1.76.17-1.12.1-2.18.2-3.21.35l-2.21.3c-3.15.44-6.41.88-9.58,1.48a3.44,3.44,0,0,0-2.33,1.34,1.93,1.93,0,0,0-.17,1.59,1.54,1.54,0,0,0,.67,1,3.07,3.07,0,0,0,2.1-.21c.21-.07.43-.14.65-.19h0l2.34-.67a39.94,39.94,0,0,1,8-1.73c1-.07,1.86-.17,2.55-.24,1.71-.18,2.57-.28,3.07.18S121,48,121,50.2c0,.66,0,1.44,0,2.35a1.74,1.74,0,0,1-.16.6c0,.13-.11.29-.17.49l0,.15h-.16l-1.61-.06c-1.21,0-2.47-.09-3.72-.19Zm14.85,11.38H116.48v-.23c.05-.63.09-1.24.13-1.85.11-1.64.21-3.19.44-4.73a2.2,2.2,0,0,1,1.65-1.48c2.67-.09,5.39-.08,8-.07h2.83Zm-12.63-.42h12.22V57h-2.42c-2.63,0-5.34,0-8,.07a1.89,1.89,0,0,0-1.25,1.12c-.22,1.53-.33,3.07-.43,4.7C117,63.37,117,63.92,116.93,64.47Z"/><path class="cls-1" d="M207.2,56.57c5.75-.17,5.75-.17,6.05-5.64.2-3.71.2-3.7-3.64-3.67a14.77,14.77,0,0,1-1.68-.14c-5.71-.27-5.71-.27-5.68,4.88C202.28,56.72,202.28,56.72,207.2,56.57Zm-1.9-6.2a28.88,28.88,0,0,1,5.16-.9c-.11,1.74-.17,2.89-.27,4.46a23,23,0,0,1-4.82-.8C205,53,205,50.47,205.3,50.37Z"/><path class="cls-2" d="M205.32,56.82c-1.33,0-2.11-.11-2.59-.58-.67-.64-.67-1.84-.69-4.24,0-2.59,0-3.89.7-4.58s2.15-.66,5.2-.51l.32,0c.36,0,.85.09,1.35.1,2,0,3,0,3.5.51s.45,1.48.35,3.38c-.3,5.56-.42,5.67-6.26,5.84h0C206.48,56.8,205.85,56.82,205.32,56.82Zm0-9.59a3.31,3.31,0,0,0-2.25.49c-.59.57-.59,1.89-.57,4.27s0,3.43.56,3.95,1.76.5,4.17.42h0c5.57-.16,5.57-.16,5.85-5.44.1-1.73.15-2.67-.23-3.07s-1.37-.4-3.17-.39a12.77,12.77,0,0,1-1.43-.1l-.3,0C206.85,47.28,206,47.23,205.28,47.23Zm5.11,6.91h-.22c-.5-.07-1-.12-1.44-.17a14.7,14.7,0,0,1-3.43-.64c-.35-.13-.42-1-.42-1.77,0-1.27.25-1.35.35-1.39a16.72,16.72,0,0,1,3.58-.69c.51-.06,1-.13,1.62-.22l.25,0Zm-5-3.59a5.36,5.36,0,0,0,.06,2.4,14.23,14.23,0,0,0,3.3.61c.4,0,.81.08,1.23.14l.23-4-1.37.18A16.52,16.52,0,0,0,205.41,50.55Zm0,0Z"/><path class="cls-1" d="M198.68,68.47c5-.08,10,0,15.07,0v.1c4.67,0,9.35-.08,14,0,3.61.08,3.82-.13,3.9-3.65.2-9,.52-18,.8-27,.06-1.78-.76-2.59-2.51-2.45-1,.08-2.05.37-3.08.36q-12.21-.13-24.42-.38a17.67,17.67,0,0,1-3.06-.39c-2.87-.56-3.67.26-3.65,3.25.08,9,.11,18,0,27C195.71,67.64,196.44,68.5,198.68,68.47Zm26.3-27c.07-.49.2-1.47.44-3.28.87,1,1.83,1.6,1.84,2.21.12,5.79.07,11.58.07,17.4-4-.34-4.4-.84-3.7-4.14a25,25,0,0,0,.72-4.07c0-.68-.59-1.38-.91-2.06A6.39,6.39,0,0,0,222.09,49c-.51,1.19-.79,2.47-1.2,3.69a7,7,0,0,1-.66,1.13c-2-2.48-2.34-5.17-2.18-8.42,2.17,0,4.23.11,6.26-.06a8.61,8.61,0,0,0,2.56-1.13Zm-22-2.69c6.4.06,12.79,0,19.4,0C222,40.05,221.65,41,221.3,42c-1.43.16-2.76.53-3.22-1.52-.12-.55-1.51-1.37-1.89-1.18-.85.41-1.42,1.38-2.51,2.55-3.73.86-8.46-1.31-12.79,1.27,0-.83.06-1.61,0-2.37C200.71,39.11,201.51,38.72,203,38.74Zm-2.63,24.17q0-8.55,0-17.13h13.7c1.19,3.77,2.63,7.46,3.47,11.27.46,2.1-1.8,2.23-3.23,2.72l.09-.71c-1-.39-1.93-1.16-2.84-1.09-2.84.23-5.65.78-8.47,1.2-1.6.24-2.35,1.18-2,2.72s1.67,1.31,2.92.92c2.88-.89,5.78-1.7,8.6-2.51,3.05,4.24,5.08,4.52,8.1,1.21a16.1,16.1,0,0,0,3,1.84,18.63,18.63,0,0,0,4,.42c-.86.65-1.34,1.33-1.84,1.34-8,.07-15.93,0-23.89.07C200.22,65.19,200.39,64.05,200.39,62.91Z"/><path class="cls-2" d="M228.71,68.79h-.94c-3.27-.08-6.59-.06-9.8,0h-4.43v-.1h-4.16c-3.5,0-7.13,0-10.7,0h0a3.3,3.3,0,0,1-2.43-.7,3.46,3.46,0,0,1-.72-2.63c.13-9.92.08-19.64,0-27,0-1.7.25-2.65.87-3.16s1.53-.59,3-.29a17.43,17.43,0,0,0,3,.38c8.84.17,16.83.29,24.41.38a10,10,0,0,0,1.8-.19c.41-.06.84-.13,1.27-.17a2.59,2.59,0,0,1,2.07.55,2.69,2.69,0,0,1,.66,2.11l-.16,4.95c-.23,7.22-.48,14.68-.64,22,0,1.85-.12,2.78-.69,3.32S230,68.79,228.71,68.79Zm-6.54-.48c1.87,0,3.75,0,5.61,0s2.69,0,3.12-.42.52-1.22.56-3c.17-7.34.41-14.81.64-22l.16-4.95a2.29,2.29,0,0,0-.53-1.8,2.22,2.22,0,0,0-1.75-.43c-.41,0-.83.1-1.24.16a10.48,10.48,0,0,1-1.86.2c-7.59-.09-15.58-.21-24.42-.38a18.12,18.12,0,0,1-3.1-.39c-1.37-.27-2.19-.21-2.68.2s-.73,1.27-.72,2.84c.07,7.36.12,17.08,0,27a3.14,3.14,0,0,0,.61,2.32,2.89,2.89,0,0,0,2.13.58h0c3.57-.05,7.2,0,10.7,0H214v.09h8.21ZM202,65.38A1.87,1.87,0,0,1,200.6,65a2.36,2.36,0,0,1-.42-1.76V45.57h14.06l.05.15c.35,1.1.72,2.21,1.09,3.31a74.1,74.1,0,0,1,2.38,8c.42,1.92-1.22,2.36-2.55,2.72-.28.08-.56.15-.81.24l-.32.11.11-.89c-.26-.12-.52-.26-.77-.39a3.77,3.77,0,0,0-1.83-.62c-2,.16-4,.48-5.93.8l-2.52.4a2.23,2.23,0,0,0-1.63.84,2,2,0,0,0-.15,1.61,1.48,1.48,0,0,0,.61,1,3,3,0,0,0,2.05-.19c2.05-.63,4.13-1.23,6.14-1.81l2.46-.7.15,0,.08.11c1.63,2.27,2.91,3.31,4.14,3.38s2.2-.61,3.64-2.19l.12-.13.15.1c.29.19.58.4.87.61a8.57,8.57,0,0,0,2.05,1.21,7.4,7.4,0,0,0,2.26.3c.49,0,1,0,1.67.11l.54,0-.43.32c-.3.23-.55.46-.78.67-.44.4-.79.71-1.18.72-4.38,0-8.83,0-13.14,0-3.59,0-7.17,0-10.76,0Zm-1.38-2.47v.29a2.06,2.06,0,0,0,.29,1.45A1.52,1.52,0,0,0,202,65q5.38,0,10.77,0c4.31,0,8.76,0,13.13,0,.24,0,.54-.27.91-.61l.4-.36-1.14-.06a7.92,7.92,0,0,1-2.39-.33,9.05,9.05,0,0,1-2.14-1.26l-.71-.5C219.36,63.36,218.15,64,217,64c-1.34-.08-2.69-1.14-4.36-3.43l-2.32.66c-2,.58-4.09,1.18-6.14,1.81a3.14,3.14,0,0,1-2.37.15,1.78,1.78,0,0,1-.81-1.22,2.33,2.33,0,0,1,.2-1.95,2.66,2.66,0,0,1,1.92-1c.84-.12,1.68-.26,2.51-.39,2-.32,4-.65,6-.81a4.18,4.18,0,0,1,2.06.67,7.12,7.12,0,0,0,.88.43l.15.06-.07.56c.17-.06.34-.1.53-.15,1.55-.43,2.55-.81,2.24-2.23A77.09,77.09,0,0,0,215,49.16c-.36-1.06-.72-2.11-1.06-3.17H200.6V62.91ZM227.54,58h-.23c-2.11-.18-3.29-.41-3.82-1.13s-.4-1.65-.06-3.26c.06-.31.13-.62.2-.93a18.53,18.53,0,0,0,.52-3.11,2.7,2.7,0,0,0-.53-1.3l-.23-.4-.28.26a3.42,3.42,0,0,0-.83,1,21.23,21.23,0,0,0-.78,2.33c-.13.45-.26.9-.41,1.35a3.21,3.21,0,0,1-.38.69q-.14.2-.3.48l-.16.25-.18-.23c-2.08-2.54-2.39-5.26-2.22-8.56v-.2h.19l1.88,0c1.5,0,2.93,0,4.37-.08a4.19,4.19,0,0,0,1.67-.68l.59-.32-1.8-2.66.52-3.81.3.35c.3.34.61.64.89.9.55.53,1,.95,1,1.43.09,4.5.08,9.08.07,13.51V58Zm-4-10.86.13.28A4.86,4.86,0,0,0,224,48a3,3,0,0,1,.58,1.53,17.12,17.12,0,0,1-.52,3.19l-.21.93c-.3,1.45-.4,2.39,0,2.92s1.49.78,3.3.94c0-1.22,0-2.45,0-3.67,0-3.13,0-6.33,0-9.52l-.15.07c-.26.12-.53.27-.78.41a4.59,4.59,0,0,1-1.85.74,42.94,42.94,0,0,1-4.41.07l-1.67,0c-.13,3,.17,5.53,2,7.86a2.52,2.52,0,0,1,.15-.24,3,3,0,0,0,.34-.59c.14-.44.27-.89.4-1.34a20.64,20.64,0,0,1,.8-2.37,3.49,3.49,0,0,1,.93-1.14c.16-.15.32-.29.46-.44Zm1.7-5.74,1.91,2.82q0-1.92-.06-3.84c0-.31-.41-.69-.87-1.13-.19-.19-.4-.39-.61-.61ZM200.68,43.5v-.36c0-.27,0-.52,0-.78a11.66,11.66,0,0,0,0-1.57,2.1,2.1,0,0,1,.38-1.69,2.57,2.57,0,0,1,2-.57h0c4.67,0,9.25,0,14.1,0h5.6l-1.26,3.66-.51.06c-1.28.16-2.62.33-3.07-1.73a2.09,2.09,0,0,0-1-.86,1.12,1.12,0,0,0-.62-.18A5.57,5.57,0,0,0,214.74,41c-.26.32-.56.68-.91,1l0,.05h-.06a16.21,16.21,0,0,1-4.74.1c-2.65-.2-5.39-.41-8,1.15ZM203,39a2.07,2.07,0,0,0-1.59.43,1.73,1.73,0,0,0-.28,1.36,11,11,0,0,1,0,1.63c0,.14,0,.27,0,.41,2.62-1.43,5.32-1.23,7.92-1a16.35,16.35,0,0,0,4.55-.07c.32-.35.6-.69.85-1a5.53,5.53,0,0,1,1.68-1.57,1.23,1.23,0,0,1,.93.16c.54.26,1.16.73,1.26,1.16.37,1.69,1.31,1.57,2.61,1.41l.25,0,1-2.86h-5c-4.85,0-9.43,0-14.1,0Z"/><path class="cls-1" d="M245,61.81a13.52,13.52,0,0,0,.75,3c.62,1.27,1.82,2.64,3.18,1.38,1.58-1.46,2.63-3.48,3.91-5.26l-.61-.43Z"/><path class="cls-2" d="M247.79,66.94l-.27,0c-1-.2-1.74-1.45-2-2a7.68,7.68,0,0,1-.58-2.16c-.06-.32-.11-.63-.18-.93l0-.22,7.53-1.32.86.6-.13.17c-.38.53-.75,1.1-1.11,1.65A19.35,19.35,0,0,1,249,66.38,1.85,1.85,0,0,1,247.79,66.94Zm-2.58-5c0,.24.09.49.14.74a7.57,7.57,0,0,0,.54,2c.23.47.86,1.59,1.71,1.75a1.34,1.34,0,0,0,1.15-.43,19,19,0,0,0,2.76-3.56c.32-.5.65-1,1-1.5l-.36-.26Z"/><path class="cls-1" d="M268,60.27c-.22.17-.44.34-.65.52.67,1.33,1.28,2.69,2,4,.61,1.07,1.07,2.68,2.84,1.69,1.49-.83,3.38-1.54,2.82-3.6Z"/><path class="cls-2" d="M271.16,67a1.23,1.23,0,0,1-.39-.06c-.69-.21-1.06-.94-1.39-1.59-.08-.15-.16-.31-.25-.46-.51-.9-1-1.86-1.42-2.78l-.6-1.21-.07-.15.87-.69,7.23,2.66,0,.11c.54,2-1,2.82-2.4,3.55l-.52.28A2.21,2.21,0,0,1,271.16,67Zm-3.6-6.14c.18.36.35.71.52,1.07.45.91.91,1.86,1.42,2.76l.25.47c.3.6.62,1.23,1.14,1.38a1.46,1.46,0,0,0,1.15-.24l.53-.29c1.34-.71,2.6-1.38,2.22-3L268,60.51Z"/><path class="cls-1" d="M266.77,54.17c-3.8-.38-3.8-.4-6.11-2.89l1,.15c3.58.57,3.79.28,3.61-3.41a56.21,56.21,0,0,1,.2-6.74c.28-4.17.32-4.17-3.77-4.32-.14,0-.28-.16-.41-.24l.59-.21c-.37-1.1-.5-3-1.15-3.16-3.11-1-2.21,2.09-2.9,3.45-3.34-.26-3.45-.11-3.36,3.2.07,2.68.11,5.37,0,8-.13,3.92-.18,3.92,3.57,3.56.12,0,.26.15.95.59a12.25,12.25,0,0,1-2.95,1.37c-3.34.48-6.72.67-10.05,1.18a35.15,35.15,0,0,0-6.74,1.67c-.61.22-.79,1.62-1.17,2.48a11.48,11.48,0,0,0,2.71.6,7.22,7.22,0,0,0,2.17-.79c4.86-1.91,9.89-1.93,14.92-1.8,0,2.68-.06,5,0,7.34.05,1.72-.54,4.31,2,4.33s2.2-2.61,2.18-4.44c0-2.3-.21-4.59-.36-7.66,5.21,1.08,9.84,2,14.45,3,3.67.81,6-1.76,4.89-5.68C276.22,55.37,271.49,54.63,266.77,54.17Zm-8.08-14.11a5.94,5.94,0,0,1,3,0c.38.11.48,1.16.83,2.08h-4.3C258.39,41.32,258.4,40.13,258.69,40.06Zm-.42,8.64c-1.31-2.67.48-4.39,3.86-3.57V48.7Z"/><path class="cls-2" d="M260,68.79h0a2.15,2.15,0,0,1-1.57-.57c-.68-.71-.65-1.94-.61-3,0-.33,0-.64,0-.93-.05-1.61,0-3.23,0-4.94,0-.72,0-1.45,0-2.21-5-.12-9.89-.07-14.63,1.79-.22.08-.43.19-.65.29a4,4,0,0,1-1.6.52,6.49,6.49,0,0,1-1.95-.38c-.27-.08-.54-.16-.81-.22l-.24-.06.1-.23c.11-.26.21-.58.31-.9.24-.77.46-1.51,1-1.7A35.77,35.77,0,0,1,246,54.55c1.75-.27,3.55-.46,5.28-.63,1.57-.17,3.19-.33,4.77-.56a5.54,5.54,0,0,0,1.78-.76l.78-.43-.31-.21a2.18,2.18,0,0,0-.22-.15c-1.9.19-2.85.28-3.36-.2s-.49-1.46-.42-3.4V48c.1-2.9,0-5.82,0-8,0-1.71,0-2.62.47-3.11s1.41-.44,3-.32a5.27,5.27,0,0,0,.26-1.26,2.79,2.79,0,0,1,.87-2.15,2.31,2.31,0,0,1,2,0c.56.18.76,1.12,1,2.13.09.41.19.83.3,1.17l.06.19-.32.11c2,.08,3,.13,3.55.71s.46,1.64.32,3.73l0,.36a55.63,55.63,0,0,0-.18,6.46c.1,2,.08,3-.49,3.49s-1.47.44-3.36.14l-.46-.07c1.9,2,2.09,2,5.58,2.39h0l1.5.15c4.14.44,8.42.88,12.73-.47l.2-.07.06.21a5,5,0,0,1-.77,4.89,4.46,4.46,0,0,1-4.36,1c-3.18-.71-6.37-1.36-9.75-2.06L262,56.74c.05.87.1,1.68.14,2.45.1,1.81.19,3.38.21,4.94,0,.22,0,.45,0,.68,0,1.21.09,2.59-.67,3.37A2.28,2.28,0,0,1,260,68.79Zm-5-12.14c1,0,2,0,3,.05h.2v.21c0,.83,0,1.63,0,2.41,0,1.71,0,3.32,0,4.93,0,.29,0,.62,0,1,0,1.06-.06,2.15.5,2.73a1.69,1.69,0,0,0,1.27.44,1.81,1.81,0,0,0,1.44-.48c.64-.66.59-1.94.55-3.07,0-.23,0-.46,0-.68,0-1.56-.1-3.12-.21-4.93-.05-.84-.1-1.74-.15-2.72v-.27l.26.05,4.7,1c3.38.7,6.58,1.36,9.76,2.06a4,4,0,0,0,4-.92,4.49,4.49,0,0,0,.73-4.28c-4.32,1.3-8.58.86-12.7.43-.5-.05-1-.11-1.49-.15-3.81-.38-3.87-.41-6.19-2.91L260.1,51l.93.14.7.1c1.72.28,2.61.34,3,0s.43-1.51.35-3.16a56.43,56.43,0,0,1,.18-6.51l0-.36c.13-2,.2-3-.21-3.42s-1.4-.5-3.36-.57a.71.71,0,0,1-.41-.19l-.11-.08-.39-.23.83-.29c-.09-.31-.17-.67-.24-1-.17-.77-.38-1.72-.71-1.82a2,2,0,0,0-1.62,0c-.48.31-.58,1.1-.68,1.85a5,5,0,0,1-.35,1.52L258,37h-.14c-1.62-.13-2.43-.15-2.8.19s-.37,1.25-.33,2.79c.06,2.23.12,5.15,0,8.07v.16c-.06,1.76-.1,2.73.28,3.08s1.32.27,3,.1c.17,0,.28.06.51.22s.32.23.61.4l.31.2-.34.17c-.39.19-.75.39-1.09.58a5.75,5.75,0,0,1-1.92.8c-1.59.23-3.22.4-4.79.56-1.73.18-3.52.36-5.26.63a35.69,35.69,0,0,0-6.7,1.65c-.32.12-.53.82-.72,1.44-.08.24-.15.48-.24.71l.6.17a6.18,6.18,0,0,0,1.82.36,3.76,3.76,0,0,0,1.43-.47c.23-.11.45-.22.68-.31A32.12,32.12,0,0,1,254.92,56.65Zm7.42-7.75h-4.2l-.06-.11a2.84,2.84,0,0,1,0-3.12c.74-.92,2.22-1.19,4.08-.74l.16,0Zm-3.94-.41h3.52v-3.2c-1.59-.35-2.9-.11-3.5.65A2.38,2.38,0,0,0,258.4,48.49Zm4.41-6.09H258l.05-.25c.05-.28.1-.6.13-.9.1-.79.17-1.32.5-1.4h0a6.24,6.24,0,0,1,3.1.06c.36.11.5.63.68,1.29.08.31.17.62.28.92ZM258.46,42h3.75c-.07-.23-.13-.46-.19-.67-.11-.4-.26-1-.4-1a5.75,5.75,0,0,0-2.86-.06,4,4,0,0,0-.2,1C258.53,41.53,258.5,41.76,258.46,42Zm.28-1.72Z"/><path class="cls-1" d="M241.71,43.77c1,.54,2,1.16,3.28,1.86-1,1.25-1.77,2.24-2.49,3.3-1.24,1.8-.68,3.06,1.43,3.13a50,50,0,0,0,7.24-.1c.67-.07,1.51-1.29,1.73-2.12a4.28,4.28,0,0,0-.45-2.76c-.37-.72-1.22-1.19-1.86-1.77-.41.65-1.15,1.3-1.14,1.94,0,1.85-.74,2-2.5,1.27,1-1.42,2-2.69,2.93-4,.75-1.1,2.08-2.39.33-3.45-.48-.29-1.9,1-2.88,1.54a3.57,3.57,0,0,0-.38.3l-.73-.11a5.52,5.52,0,0,1,.44-1.89A45.52,45.52,0,0,0,249.59,37c.28-.54-.42-1.6-.67-2.43a5.6,5.6,0,0,0-1.89.81c-1.93,2-3.72,4.07-5.63,6C240.41,42.41,240.42,43.11,241.71,43.77Z"/><path class="cls-2" d="M247.54,52.35c-1.12,0-2.23,0-3.32-.07h-.3c-1.36,0-1.91-.56-2.12-1a2.47,2.47,0,0,1,.52-2.48c.49-.72,1-1.42,1.62-2.16.24-.31.49-.62.74-1l-.92-.53c-.74-.43-1.44-.84-2.14-1.2h0c-.69-.36-1.05-.73-1.12-1.16s.16-.95.75-1.55c.89-.93,1.77-1.89,2.61-2.83s2-2.17,3-3.23a3.17,3.17,0,0,1,1.34-.65,6.4,6.4,0,0,0,.62-.2l.21-.09.07.22a6.23,6.23,0,0,0,.31.8c.3.68.59,1.33.34,1.79a15.43,15.43,0,0,1-1.71,2.38c-.42.5-.86,1-1.23,1.56a2.88,2.88,0,0,0-.31,1.18c0,.14,0,.28-.05.42l.42.07,0,0a1.37,1.37,0,0,1,.3-.22c.29-.17.64-.41,1-.65.9-.62,1.68-1.16,2.12-.89a1.81,1.81,0,0,1,.94,1.14c.15.75-.41,1.51-.89,2.18l-.32.43c-.62.92-1.28,1.8-2,2.74l-.79,1.07c.81.32,1.3.38,1.57.2s.39-.63.39-1.38a2.62,2.62,0,0,1,.74-1.46c.15-.19.31-.4.43-.59l.13-.21.19.17c.19.17.4.33.61.5A4.16,4.16,0,0,1,252.63,47a4.53,4.53,0,0,1,.47,2.91c-.22.85-1.1,2.19-1.91,2.28A31.64,31.64,0,0,1,247.54,52.35Zm-5.73-8.76c.71.36,1.42.77,2.16,1.21.36.21.73.43,1.13.65l.2.12-.14.19-.89,1.14c-.57.74-1.12,1.43-1.6,2.14s-.75,1.57-.5,2.06.84.72,1.77.75h.3a49.84,49.84,0,0,0,6.91-.1c.54-.06,1.33-1.17,1.55-2a4.14,4.14,0,0,0-.44-2.61A3.89,3.89,0,0,0,251.08,46l-.45-.37c-.1.15-.21.29-.32.43a2.32,2.32,0,0,0-.65,1.2c0,.92-.18,1.46-.58,1.73s-1.1.21-2.21-.27l-.24-.1.15-.22,1-1.28c.69-.93,1.35-1.81,2-2.73l.32-.44c.46-.63.93-1.27.82-1.85a1.4,1.4,0,0,0-.75-.86c-.22-.13-1.12.5-1.66.87-.34.24-.7.49-1,.67a1.16,1.16,0,0,0-.22.18l-.13.1-.07.06L246,43l.05-.22c0-.19.06-.39.09-.6a3.07,3.07,0,0,1,.38-1.36c.38-.56.82-1.09,1.24-1.6a13.6,13.6,0,0,0,1.67-2.3c.15-.29-.11-.9-.35-1.43-.09-.21-.19-.43-.26-.64l-.45.14a2.73,2.73,0,0,0-1.16.55c-1,1-2,2.15-3,3.21s-1.73,1.91-2.62,2.84c-.48.49-.69.88-.64,1.19s.34.57.9.86Z"/><path class="cls-1" d="M267.57,51.06a3.09,3.09,0,0,0,2.15,1c2.06.12,4.15-.15,6.2,0,2.28.2,3-.7,2.63-2.83a9.19,9.19,0,0,0-.55-2.51c-.29-.58-1.05-.92-1.6-1.36a9.9,9.9,0,0,0-1.23,1.7,4.91,4.91,0,0,0,0,1.7h-2.82a53.09,53.09,0,0,0,3.47-5.16c.35-.68-.1-1.78-.19-2.68-.7.24-1.43.43-2.1.72a18.22,18.22,0,0,0-1.66,1l-.41-.57c.17-.27.34-.53.5-.8A28.54,28.54,0,0,0,274.34,37c.24-.64-.47-1.64-.75-2.47a6.74,6.74,0,0,0-1.93,1.18c-.88,1-1.51,2.31-2.33,3.41s-1.91,2.37-2.88,3.55l4,3A41.08,41.08,0,0,0,268,49C267.64,49.58,267.28,50.65,267.57,51.06Z"/><path class="cls-2" d="M276.49,52.29c-.18,0-.38,0-.59,0a28.46,28.46,0,0,0-3.33,0c-.94,0-1.91,0-2.86,0a3.28,3.28,0,0,1-2.31-1.06h0c-.4-.56.12-1.8.42-2.31a24.29,24.29,0,0,1,1.72-2.4l.62-.81-4-3,.14-.17.9-1.08c.66-.8,1.35-1.62,2-2.46.35-.47.67-1,1-1.47a17.56,17.56,0,0,1,1.36-2,3.9,3.9,0,0,1,1.36-.9c.21-.1.43-.2.63-.32l.22-.13.08.24a8.5,8.5,0,0,0,.33.8,2.55,2.55,0,0,1,.41,1.81,16.58,16.58,0,0,1-1.68,3.1c-.25.39-.5.78-.74,1.18l-.33.54-.1.16.22.3.33-.21a12.31,12.31,0,0,1,1.18-.66,14.5,14.5,0,0,1,1.48-.52l.64-.21.25-.08,0,.26a7.07,7.07,0,0,0,.15.86,3,3,0,0,1,0,1.93,29.17,29.17,0,0,1-2.32,3.56c-.31.42-.62.85-.93,1.3h2.2c0-.15,0-.29,0-.43A2.24,2.24,0,0,1,275,47a5.73,5.73,0,0,1,.86-1.26l.39-.49.13-.17.17.13a5.08,5.08,0,0,0,.53.38,3.18,3.18,0,0,1,1.13,1,6,6,0,0,1,.46,1.84c0,.24.06.49.11.73a2.83,2.83,0,0,1-.36,2.47A2.5,2.5,0,0,1,276.49,52.29Zm-2.23-.5c.56,0,1.12,0,1.67.06a2.55,2.55,0,0,0,2.16-.47,2.47,2.47,0,0,0,.26-2.11c-.05-.25-.08-.5-.12-.76a5.24,5.24,0,0,0-.41-1.7,2.9,2.9,0,0,0-1-.89l-.4-.27c-.08.11-.18.22-.27.33a5.79,5.79,0,0,0-.8,1.17,2.14,2.14,0,0,0-.05.94c0,.21,0,.43,0,.67V49h-3.42l.23-.33c.39-.58.78-1.12,1.16-1.64a29.06,29.06,0,0,0,2.29-3.5,2.76,2.76,0,0,0-.05-1.65c-.05-.22-.09-.44-.12-.65l-.41.13a12.31,12.31,0,0,0-1.44.51,9,9,0,0,0-1.13.63l-.5.3-.17.1-.6-.84.24-.39c.11-.18.23-.35.33-.53q.36-.6.75-1.2a16.62,16.62,0,0,0,1.64-3c.14-.36-.13-.94-.39-1.5q-.15-.3-.27-.6L273,35a3.53,3.53,0,0,0-1.22.79,16.72,16.72,0,0,0-1.33,1.91c-.31.5-.63,1-1,1.5-.63.85-1.32,1.68-2,2.48-.25.3-.51.6-.76.91l4,3-.12.17-.75,1a24.18,24.18,0,0,0-1.69,2.36c-.36.61-.64,1.57-.44,1.86h0a2.89,2.89,0,0,0,2,.89c.94.05,1.9,0,2.83,0C273.12,51.8,273.69,51.79,274.26,51.79Z"/><path class="cls-1" d="M175.56,44a5.91,5.91,0,0,0-2.31.06c-.71.33-1.18,1.15-1.76,1.76a8.89,8.89,0,0,0,2.14,1.3,4.1,4.1,0,0,0,2-.33c1.32-.39,3.54.86,3.67-1.5,0-.54-2.08-1.19-3.33-1.8h-.21C175.7,43.61,175.63,43.78,175.56,44Z"/><path class="cls-2" d="M174,47.33a1.47,1.47,0,0,1-.42-.06,5.06,5.06,0,0,1-1.58-.89c-.2-.15-.41-.3-.62-.43l-.21-.14.17-.18c.17-.18.33-.38.5-.58a4,4,0,0,1,1.32-1.23,3.37,3.37,0,0,1,1.68-.13l.58.05.23-.51.43,0c.35.16.78.34,1.19.51,1.42.59,2.29,1,2.26,1.48a1.78,1.78,0,0,1-.52,1.33,2.58,2.58,0,0,1-2,.32,3.75,3.75,0,0,0-1.35,0l-.31.09A4.88,4.88,0,0,1,174,47.33Zm-2.19-1.6.44.31a4.51,4.51,0,0,0,1.44.83,3.15,3.15,0,0,0,1.57-.23l.33-.1a4.33,4.33,0,0,1,1.49-.06,2.22,2.22,0,0,0,1.65-.22,1.35,1.35,0,0,0,.38-1c0-.25-1.3-.78-2-1.07-.4-.17-.82-.34-1.17-.51h0l-.23.5h-.13c-.25,0-.5,0-.76,0a2.89,2.89,0,0,0-1.46.09,3.73,3.73,0,0,0-1.18,1.11C172,45.45,171.93,45.6,171.81,45.73Z"/><path class="cls-1" d="M177,50.37a16.48,16.48,0,0,0,2.49-1.16A28.93,28.93,0,0,0,177,47.66c-.35-.18-.85,0-1.29,0h0c-.69,0-1.51-.23-2,.06a11.91,11.91,0,0,0-2.2,1.9A8.31,8.31,0,0,0,174,50.78,8.09,8.09,0,0,0,177,50.37Z"/><path class="cls-2" d="M174.5,51l-.57,0a4.82,4.82,0,0,1-1.79-.78,7.63,7.63,0,0,0-.73-.42l-.27-.14.23-.2c.21-.19.42-.4.62-.6a6.93,6.93,0,0,1,1.62-1.34,2.68,2.68,0,0,1,1.5-.12l.5,0h.14a2.69,2.69,0,0,0,.4,0,1.89,1.89,0,0,1,1,.08,16.25,16.25,0,0,1,1.79,1.11l.69.45.32.21-.34.16-.74.38a9.75,9.75,0,0,1-1.78.79A9.57,9.57,0,0,1,174.5,51Zm-2.64-1.46.5.29a4.28,4.28,0,0,0,1.62.72,7.7,7.7,0,0,0,3-.4h0a9.21,9.21,0,0,0,1.7-.76l.43-.23-.39-.26a14.88,14.88,0,0,0-1.75-1.07,1.37,1.37,0,0,0-.74,0l-.24,0h-.21a5.31,5.31,0,0,1-.68-.05,2.49,2.49,0,0,0-1.27.08,7.32,7.32,0,0,0-1.52,1.26Z"/><path class="cls-1" d="M158.46,55c3.78-.24,7.57-.52,11.35-.78v.29c2.59,0,5.18,0,7.77,0,1.51,0,3-.25,2.77-2.1,0-.46-1.65-1.06-2.55-1.07-6.45-.1-12.9-.14-19.35,0a3.39,3.39,0,0,0-2.52,2.08C155.62,55.23,157.25,55.1,158.46,55Z"/><path class="cls-2" d="M157.6,55.27a2.09,2.09,0,0,1-1.61-.5,1.53,1.53,0,0,1-.26-1.33,3.61,3.61,0,0,1,2.73-2.25c6.74-.18,13.57-.12,19.36,0,.86,0,2.68.6,2.75,1.26a2,2,0,0,1-.42,1.61,3.48,3.48,0,0,1-2.56.72c-1.82,0-3.64,0-5.47,0h-2.5v-.26l-3,.2c-2.72.19-5.44.38-8.16.55h-.06C158.15,55.25,157.88,55.27,157.6,55.27Zm10.3-3.78c-3.09,0-6.27,0-9.43.12a3.27,3.27,0,0,0-2.33,1.9,1.14,1.14,0,0,0,.16,1c.39.43,1.33.37,2.08.32h.07c2.72-.17,5.44-.36,8.15-.55L170,54v.3h7.57a3.13,3.13,0,0,0,2.26-.58,1.62,1.62,0,0,0,.31-1.29,3.71,3.71,0,0,0-2.35-.88C174.74,51.53,171.38,51.49,167.9,51.49Z"/><path class="cls-1" d="M174.82,56.09c-8.14.12-16.27.28-24.4.54-1.83.06-4.16.61-3.74,2.94s2.61,1.09,4.11.9c4.16-.52,8.3-1.08,12.45-1.62.15.38.29.76.44,1.15-1.84,1.54-3.74,3-5.48,4.65a12.46,12.46,0,0,0-1.65,2.65c1,.44,2.06,1.23,3.09,1.25,6.28.08,12.55,0,18.82-.1a2.76,2.76,0,0,0,1.93-.89,2,2,0,0,0-.13-1.89,24.6,24.6,0,0,0-3.48-4.18c-.47-.42-1.65-.06-2.5-.06a15.07,15.07,0,0,0,0,2.23c.05.36.42.66.82,1.23H163.49c1.54-1.78,3.38-2.8,4.76-4.26A3.88,3.88,0,0,1,172,59.24c3.91.67,7.83,1.27,11.69,2.13a4.74,4.74,0,0,0,5.19-2,13.31,13.31,0,0,0,1.37-3.24C184.74,56.08,179.78,56,174.82,56.09Z"/><path class="cls-2" d="M165.27,68.79l-5.63,0a5.09,5.09,0,0,1-2.21-.79c-.32-.17-.65-.34-1-.47l-.23-.1.13-.2c.16-.28.32-.57.47-.86a6.83,6.83,0,0,1,1.21-1.84c1.25-1.18,2.6-2.28,3.9-3.35l1.48-1.22-.32-.86-3.33.44c-3,.4-6,.8-9,1.17a9.76,9.76,0,0,0-1,.22,3.32,3.32,0,0,1-2.55,0,1.88,1.88,0,0,1-.76-1.33,2.3,2.3,0,0,1,.42-2c.77-1,2.34-1.2,3.52-1.24,7.05-.23,14.57-.39,24.4-.54h0c3.39-.05,6.78,0,10.36,0l5.12,0h.31l-.12.28c-.1.25-.19.53-.29.84a8.48,8.48,0,0,1-1.1,2.45,4.92,4.92,0,0,1-5.4,2.13c-3-.66-6.13-1.19-9.13-1.69L172,59.45a3.68,3.68,0,0,0-3.61,1.32,18.5,18.5,0,0,1-2.09,1.83A21.36,21.36,0,0,0,164,64.68h10.76l-.13-.17a1.73,1.73,0,0,1-.48-.82,9.78,9.78,0,0,1-.05-1.62c0-.21,0-.43,0-.64v-.21h.21c.25,0,.55,0,.84-.07.69-.08,1.41-.17,1.8.19a25.37,25.37,0,0,1,3.52,4.21,2.25,2.25,0,0,1,.12,2.13,2.93,2.93,0,0,1-2.09,1C174.24,68.73,169.79,68.79,165.27,68.79Zm-8.43-1.58c.27.12.53.26.78.39a4.71,4.71,0,0,0,2,.74c6.43.08,12.84,0,18.81-.1a2.5,2.5,0,0,0,1.76-.81,1.86,1.86,0,0,0-.13-1.64,24.54,24.54,0,0,0-3.45-4.14c-.25-.23-.87-.16-1.47-.09-.23,0-.46.06-.69.07v.45a10,10,0,0,0,0,1.55,1.66,1.66,0,0,0,.39.62c.12.15.26.32.4.52l.23.33H163l.3-.35a19.93,19.93,0,0,1,2.72-2.47,20.06,20.06,0,0,0,2-1.79,4.14,4.14,0,0,1,4-1.46l2.55.44c3,.5,6.12,1,9.15,1.7a4.52,4.52,0,0,0,5-2,7.85,7.85,0,0,0,1.05-2.33c.06-.2.12-.4.19-.58h-4.82c-3.58,0-7,0-10.35,0h0c-9.83.14-17.35.31-24.4.54-1.09,0-2.53.25-3.21,1.09a1.94,1.94,0,0,0-.33,1.6,1.53,1.53,0,0,0,.57,1.06,3.16,3.16,0,0,0,2.23-.09,8.2,8.2,0,0,1,1.09-.23c3-.38,6-.77,9-1.17l3.65-.48.54,1.44-.11.1-1.59,1.31c-1.3,1.07-2.65,2.17-3.88,3.34a6.11,6.11,0,0,0-1.13,1.72C157.09,66.76,157,67,156.84,67.21Z"/><path class="cls-1" d="M160.84,46.84c1.21-.4,3.41.86,3.36-1.43,0-.67-2.22-1.31-3.42-2l-.28.58c-.77,0-1.68-.26-2.28.07-.75.4-1.23,1.28-1.83,1.95a8.44,8.44,0,0,0,2.2,1.15A4.72,4.72,0,0,0,160.84,46.84Z"/><path class="cls-2" d="M159,47.45a2.31,2.31,0,0,1-.46-.05,4.76,4.76,0,0,1-1.62-.78c-.21-.13-.42-.27-.64-.39l-.23-.13.17-.19c.18-.2.35-.42.51-.63a4.74,4.74,0,0,1,1.38-1.37,3,3,0,0,1,1.66-.14l.59,0,.32-.66.19.11c.37.2.85.4,1.32.6,1.18.5,2.2.94,2.21,1.54A1.63,1.63,0,0,1,164,46.7a2.3,2.3,0,0,1-1.82.3,3.32,3.32,0,0,0-1.27,0h0A6.3,6.3,0,0,1,159,47.45ZM156.71,46l.45.28a4.18,4.18,0,0,0,1.47.72,4.48,4.48,0,0,0,2.15-.35h0a3.63,3.63,0,0,1,1.44,0c.61,0,1.19.1,1.5-.19a1.29,1.29,0,0,0,.27-1c0-.33-1.18-.83-2-1.17-.4-.17-.81-.34-1.16-.52l-.24.51h-.13c-.25,0-.51,0-.76-.05a2.73,2.73,0,0,0-1.42.09,4.5,4.5,0,0,0-1.25,1.25Z"/><path class="cls-1" d="M158.51,50.82a6.08,6.08,0,0,0,2.52-.4c1.24-.33,3.41.86,3.39-1.42,0-.64-2.29-1.26-3.53-1.9l-.26.56a6.75,6.75,0,0,0-2.55.07c-.7.31-1.15,1.2-1.7,1.83A7.12,7.12,0,0,0,158.51,50.82Z"/><path class="cls-2" d="M158.94,51.07a3.73,3.73,0,0,1-.47,0h0a4.2,4.2,0,0,1-1.58-.85,6.5,6.5,0,0,0-.63-.44l-.2-.13.16-.19c.16-.18.32-.4.48-.61a3.51,3.51,0,0,1,1.3-1.27,3.76,3.76,0,0,1,1.84-.14c.22,0,.44,0,.66,0l.3-.62.19.1c.38.19.87.39,1.35.58,1.23.5,2.28.92,2.29,1.5a1.68,1.68,0,0,1-.43,1.3,2.39,2.39,0,0,1-1.87.31,3.63,3.63,0,0,0-1.24,0l-.34.09A6.89,6.89,0,0,1,158.94,51.07Zm-.39-.46a4.9,4.9,0,0,0,2.09-.29l.34-.1a4.22,4.22,0,0,1,1.38,0c.63.06,1.23.11,1.55-.19a1.29,1.29,0,0,0,.3-1c0-.3-1.22-.78-2-1.11-.41-.16-.84-.33-1.2-.51l-.23.48h-.13c-.27,0-.54,0-.82,0a3.56,3.56,0,0,0-1.65.1A3.32,3.32,0,0,0,157,49.06c-.11.15-.22.31-.34.46l.45.32a3.66,3.66,0,0,0,1.41.77Z"/><path class="cls-1" d="M181.06,49.25a2.46,2.46,0,0,0,1.73,1.69,2.56,2.56,0,0,0,1.82-1.56c.81-2.76,1.36-5.6,2.14-9-2.76,0-5.55,0-8.34,0s-5.52-.19-8.29-.29c0-.3,0-.59.07-.88,2.78,0,5.57-.05,8.36,0,2.63,0,3.68-1,3.16-3.57H167.26c-3.38,0-6.76,0-10.13,0-1.72,0-3,.82-2.79,2.64.22,2,1.78,1.29,3,1.16,2.89-.3,5.8-.51,8.71-.76.06.27.12.54.19.81-.31.2-.62.58-.93.57-4.13-.05-8.27,0-12.38-.31-2.44-.18-3.15.28-2.87,2.69.25,2.15.34,4.31.64,6.45a7.82,7.82,0,0,0,1,2.09c.84-.44,2.12-.67,2.44-1.35.56-1.2.47-2.69.8-4,.16-.65.6-1.69,1-1.75,3.38-.43,6.78-.68,10.37-1,0,2.18,0,3.81,0,5.44,0,1.24-.12,2.82,1.6,2.56.8-.12,1.79-1.51,2-2.47a25.28,25.28,0,0,0,.09-5h5.78l0-.07.18.07h5.24A42.13,42.13,0,0,0,181.06,49.25Z"/><path class="cls-2" d="M151.61,51.3l-.09-.19c-.1-.22-.23-.43-.35-.64a4.34,4.34,0,0,1-.63-1.51c-.17-1.22-.27-2.46-.37-3.66-.08-.92-.16-1.87-.27-2.79-.14-1.25,0-2,.41-2.42s1.45-.6,2.69-.51l1.81.11-.07,0a1.73,1.73,0,0,1-.6-1.3,2.44,2.44,0,0,1,.52-2,3.24,3.24,0,0,1,2.46-.9c2.33,0,4.69,0,7,0h17.79l0,.17a3.33,3.33,0,0,1-.4,2.88,3.6,3.6,0,0,1-3,.94c-1.94,0-3.91,0-5.81,0h-2.35l0,.48,2.33.09c1.88.08,3.82.15,5.73.19s3.91,0,5.81,0H187l-.06.25c-.22.94-.42,1.84-.61,2.7-.48,2.2-1,4.28-1.53,6.28a2,2,0,0,1-4-.17h0a24.21,24.21,0,0,1,.06-4c0-.53.07-1.07.1-1.65l-5.15,0-.08,0h-5.57c0,.4,0,.8,0,1.21a15.07,15.07,0,0,1-.14,3.61c-.2,1.05-1.26,2.5-2.15,2.63a1.49,1.49,0,0,1-1.29-.27c-.57-.49-.56-1.45-.55-2.3v-.19c0-1.12,0-2.23,0-3.53V43.13l-2.3.2c-2.71.23-5.27.45-7.84.78-.23,0-.65.83-.84,1.59a13.35,13.35,0,0,0-.25,1.58,8,8,0,0,1-.57,2.48c-.25.55-1,.82-1.68,1.09a8.35,8.35,0,0,0-.85.35ZM152.16,40a2.09,2.09,0,0,0-1.55.41c-.33.35-.42,1-.29,2.09.11.93.18,1.88.26,2.8.1,1.2.2,2.43.37,3.64a4.15,4.15,0,0,0,.59,1.37c.09.15.18.31.26.47.22-.1.47-.19.7-.28.63-.24,1.27-.48,1.46-.88a7.56,7.56,0,0,0,.52-2.35,15,15,0,0,1,.27-1.63s.45-1.81,1.18-1.9c2.58-.34,5.15-.55,7.86-.79l2.52-.22.23,0v2.14c0,1.3,0,2.42,0,3.54v.18c0,.76,0,1.62.4,2a1.15,1.15,0,0,0,1,.17c.69-.1,1.63-1.43,1.81-2.3a15.23,15.23,0,0,0,.12-3.51c0-.49,0-1,0-1.44v-.21h5.85l0-.07.31.05.05,0h5.42v.22c0,.66-.07,1.28-.11,1.88a23.39,23.39,0,0,0-.06,3.9h0a2.32,2.32,0,0,0,1.53,1.5,2.37,2.37,0,0,0,1.61-1.41c.58-2,1-4.06,1.53-6.25.17-.79.35-1.6.54-2.44h-2.26c-1.9,0-3.87,0-5.81,0s-3.87-.12-5.75-.19l-2.54-.1h-.22L170,39h2.74c1.9,0,3.88,0,5.82,0a3.25,3.25,0,0,0,2.65-.79,2.84,2.84,0,0,0,.34-2.36H164.09c-2.29,0-4.64,0-7,0a2.83,2.83,0,0,0-2.15.76,2,2,0,0,0-.43,1.64,1.45,1.45,0,0,0,.44,1,2.3,2.3,0,0,0,1.68.06c.24,0,.47-.08.7-.1,2.06-.21,4.16-.38,6.19-.55l2.52-.21h.18l.26,1.13-.12.08-.27.21a1.35,1.35,0,0,1-.77.39l-2.7,0c-3.18,0-6.47-.06-9.7-.29A7.77,7.77,0,0,0,152.16,40Zm4.66-.19c2,.06,3.93.08,5.85.1.9,0,1.8,0,2.69,0h0c.13,0,.32-.16.49-.3l.19-.16-.12-.5-2.34.2c-2,.16-4.12.33-6.18.55Z"/><path class="cls-1" d="M175.78,43.44H176l-.18-.07Z"/><path class="cls-2" d="M176.88,43.65h-1.41l.23-.53.28.09.1,0Z"/><path class="cls-3" d="M82.06,17h0Z"/><path class="cls-3" d="M86.4,19.89v-.42l0-4.21.08-8.53a2.5,2.5,0,0,0-.39-1.66,2.5,2.5,0,0,0-1.8-.61c-2.8-.18-5.61-.19-8.4-.38a31,31,0,0,0-4.72.06A11.12,11.12,0,0,0,67,5c-1,.58-1,1.93-1,3,0,2.78.12,5.57.17,8.36l.08,4.23c0,.71,0,1.41.05,2.12s-.07,1.41.69,1.63a10.84,10.84,0,0,0,2.84.24l8.32.1a30.85,30.85,0,0,0,5.52-.25c1-.15,1.86-.27,2.3-1.23A8,8,0,0,0,86.4,19.89ZM68.15,7.34c0-.61.15-.78.74-.66a4.2,4.2,0,0,0,.62.08l5,.07a4.5,4.5,0,0,0,.63-.07c.35,0,.52.14.51.5-.06,1.82-.13,3.65-.17,5.47,0,.72-.06.76-.79.74-1,0-1.9,0-2.85,0v0H68.74c-.45,0-.6-.16-.6-.63C68.17,11,68.16,9.17,68.15,7.34ZM73,17.12c.19-.24.4-.48.58-.72s.29-.49.47-.7a1.57,1.57,0,0,1,.4-.24c0,.17.2.37.15.5a6.24,6.24,0,0,1-.49.87L74,17l.08.12a2.33,2.33,0,0,1,.34-.2,3,3,0,0,1,.42-.14c0,.18.11.4,0,.54a10.06,10.06,0,0,1-.7,1.05h.57a1,1,0,0,1,0-.35,1.56,1.56,0,0,1,.25-.34c.11.09.26.16.32.27a1.72,1.72,0,0,1,.11.51c.08.44-.07.62-.53.58s-.84,0-1.26,0a.66.66,0,0,1-.44-.19c-.06-.09,0-.31.09-.43a7.9,7.9,0,0,1,.5-.68Zm-5.09-.26c.39-.4.75-.83,1.14-1.23a1.14,1.14,0,0,1,.39-.16c0,.17.19.38.13.49a9.15,9.15,0,0,1-.59.8,1.12,1.12,0,0,0-.09.38l.15,0,.07-.07c.2-.11.49-.37.59-.31.35.22.08.48-.07.7s-.38.53-.59.82c.35.15.5.12.5-.26,0-.13.15-.26.23-.39.13.12.31.21.38.36a.79.79,0,0,1,.09.56c0,.17-.21.41-.35.43a12,12,0,0,1-1.47,0c-.43,0-.54-.27-.29-.64.15-.21.32-.41.51-.67-.25-.14-.45-.27-.67-.37S67.66,17.07,67.86,16.86Zm1.52,5.05c-.28.25-.52,0-.65-.28a3.3,3.3,0,0,1-.15-.62l1.47-.26.12.09A7,7,0,0,1,69.38,21.91Zm4.72,0c-.36.2-.45-.12-.57-.34s-.28-.54-.41-.81l.13-.1,1.43.52C74.79,21.64,74.41,21.78,74.1,22Zm.82-1.41c-.93-.21-1.87-.39-2.93-.61,0,.62.07,1.08.07,1.55s.1.91-.44.9-.39-.53-.4-.88,0-.94,0-1.49a7.62,7.62,0,0,0-3,.37,1.39,1.39,0,0,1-.44.16,2.57,2.57,0,0,1-.55-.12c.07-.18.11-.46.23-.51a7.2,7.2,0,0,1,1.37-.33c.68-.11,1.37-.15,2-.25a2.34,2.34,0,0,0,.6-.27c-.14-.09-.16-.13-.19-.12-.76.07-.75.07-.72-.73,0-.54,0-1.09,0-1.63s0-.7.68-.65c.14-.28,0-.9.59-.7.14,0,.16.42.24.64l-.12,0S72,16,72,16c.83,0,.82,0,.77.88a10.4,10.4,0,0,0-.05,1.37c0,.75,0,.81-.73.69l-.21,0c.47.51.47.51,1.24.59a7.15,7.15,0,0,0,2.91-.07C76.15,20.18,75.67,20.71,74.92,20.54ZM76.09,9.15c-.11-.39.22-.59.54-.65.79-.15,1.6-.25,2.4-.36.31-.05.63-.07,1-.11V7.2c0-.33.14-.55.49-.54s.5.21.49.55,0,.53,0,.9H85A.87.87,0,0,1,83.9,9.25L81,8.65c0,.29-.06.37-.07.46-.1,1.17,0,1.23,1.17,1.14.66-.05.68,0,.6.64a16.86,16.86,0,0,0-.06,1.74c0,.49-.15.6-.64.59-1,0-2,0-3.05,0-.37,0-.56-.08-.55-.49q0-1.05,0-2.1c0-.4.16-.53.54-.5l1.08,0a.82.82,0,0,0,.07-.21c0-1.52.17-1.27-1.21-1.17a11.11,11.11,0,0,0-2.09.49C76.54,9.38,76.21,9.56,76.09,9.15Zm6,7.85c.25.13.68.26.68.37,0,.48-.48.22-.75.3a.87.87,0,0,1-.41.07,1.59,1.59,0,0,1-.43-.26c.11-.13.21-.3.35-.36a1.21,1.21,0,0,1,.47,0l0-.1H80.88a5,5,0,0,1,0,1,.71.71,0,0,1-.4.5c-.35.05-.32-.27-.32-.52V16.89c-.73.07-1.42.12-2.11.21-.08,0-.17.22-.2.35a4.42,4.42,0,0,1-.17.82c-.06.14-.32.18-.49.27a1.6,1.6,0,0,1-.2-.42c-.06-.44-.08-.88-.13-1.31s.09-.59.59-.55c.83.06,1.67,0,2.51.06.06,0,.13-.07.19-.11l0-.17-1.77.16c-.26,0-.57.16-.62-.24s.22-.53.57-.53h5c.11.51-.11.73-.64.72h-1.7v.18l1.68.06h1.69c-.15.68-.27,1.26-.43,1.82a.5.5,0,0,1-.37.31.47.47,0,0,1-.35-.34,8,8,0,0,1,0-1.18Zm-3.64.87a1.5,1.5,0,0,1,.52,0l0-.11c.25.12.72.25.72.38,0,.46-.44.22-.69.29a1.16,1.16,0,0,1-.51.08,1.56,1.56,0,0,1-.43-.25C78.23,18.12,78.32,17.94,78.46,17.87Zm-.34-.34c.12-.13.22-.31.37-.39s.31,0,.46,0L79,17c.24.14.69.27.7.4,0,.47-.44.21-.69.29a1,1,0,0,1-.46.08A2.39,2.39,0,0,1,78.12,17.53Zm.42,1.09c1.31,0,2.62,0,3.93,0,.18,0,.51.13.52.22,0,.38-.26.43-.57.43-.52,0-1,0-1.57,0V19.2c-.76.05-1.53.11-2.3.15-.25,0-.58,0-.51-.31A.68.68,0,0,1,78.54,18.62Zm2.65-.37a2.67,2.67,0,0,1,.45-.38c.1-.06.27,0,.41,0h0c.09,0,.19,0,.26,0s.34.21.5.31a3.8,3.8,0,0,1-.5.24,1.48,1.48,0,0,1-.62.08A1.44,1.44,0,0,1,81.19,18.25Zm3.53,2a1,1,0,0,1-1,.41c-.78-.17-1.58-.29-2.37-.43a.8.8,0,0,0-.77.28c-.28.3-.66.51-1,.87h2.37c-.08-.12-.16-.18-.17-.25a3.49,3.49,0,0,1,0-.46c.17,0,.41-.07.51,0a4.51,4.51,0,0,1,.71.85.43.43,0,0,1,0,.38.53.53,0,0,1-.39.18c-1.27,0-2.55,0-3.82,0a1.84,1.84,0,0,1-.63-.25,2.47,2.47,0,0,1,.34-.54c.35-.33.74-.63,1.11-.95l-.09-.23c-.84.11-1.68.23-2.53.33-.3,0-.75.29-.83-.18s.39-.59.76-.6c1.65-.05,3.3-.08,5-.11,1,0,2,0,3.14,0A2.55,2.55,0,0,1,84.72,20.23Z"/><path class="cls-3" d="M69.42,12.78h4.85c.1,0,.2-.14.37-.27a3.71,3.71,0,0,1-.81-.09,3.47,3.47,0,0,1-.6-.37c-.61.67-1,.61-1.64-.25l-1.75.51c-.25.08-.5.16-.59-.18a.4.4,0,0,1,.39-.55c.58-.09,1.15-.2,1.72-.25a1.54,1.54,0,0,1,.58.22l0,.15c.29-.1.75-.13.66-.55a23.29,23.29,0,0,0-.71-2.29H69.09v3.48C69.09,12.56,69.06,12.79,69.42,12.78Zm1.2-3.66c.06,0,.2,0,.34,0,.78,0,.78,0,.74.74C71.64,11,71.64,11,70.47,11c-1,0-1,0-1-.93S69.46,9.06,70.62,9.12Z"/><path class="cls-3" d="M72.68,8.77a2.27,2.27,0,0,0,.44,1.71,1.5,1.5,0,0,0,.13-.23c.09-.25.14-.51.25-.75a1.31,1.31,0,0,1,.27-.31c.07.14.19.28.19.42a6,6,0,0,1-.15.83c-.14.67-.06.77.75.84,0-1.18,0-2.36,0-3.54,0-.12-.2-.24-.38-.44,0,.36-.07.56-.09.66l.39.57a2,2,0,0,1-.52.23C73.53,8.79,73.12,8.77,72.68,8.77Z"/><path class="cls-3" d="M71.79,8.05a2.51,2.51,0,0,1,.51-.52.48.48,0,0,1,.38.24c.09.42.37.34.66.31l.22-.66H69.62c-.3,0-.47.07-.43.41,0,.15,0,.31,0,.48C70.07,7.78,71,8.23,71.79,8.05Z"/><path class="cls-3" d="M79.41,11.11c-.07.43-.08.86-.12,1.33h2.57V10.83c-.72,0-1.44,0-2.16,0A.41.41,0,0,0,79.41,11.11Z"/><path class="cls-3" d="M72.07,17.62c-.69-.16-1,.18-.79.73h.79Z"/><path class="cls-3" d="M72,16.6a1.15,1.15,0,0,0-.61,0c-.06,0-.06.26-.1.43h.88C72.08,16.84,72.05,16.62,72,16.6Z"/><path class="cls-3" d="M71.08,10.5c0-.32,0-.55,0-.9a5.17,5.17,0,0,0-1,.18.83.83,0,0,0,0,.56A4.67,4.67,0,0,0,71.08,10.5Z"/><path class="cls-3" d="M88.3,31.21a6.81,6.81,0,0,0-4.25-2.06,24.74,24.74,0,0,0-5.64,0c-9.1.63-27,.23-27.28-1.34,0-1.06,3.1-1,4.7-1.22a20.12,20.12,0,0,1,6.66.26l.27.06a1,1,0,0,0,.59,0c.21-.1,0-.28-.1-.37A10.84,10.84,0,0,0,57.43,25l-.63,0c-.39,0-.8,0-1.2,0-.85.05-1.7.13-2.55.25s-1.49.24-2.22.41a2.62,2.62,0,0,0-1.92,1.11,1.79,1.79,0,0,0,.33,1.89A4.09,4.09,0,0,0,51,29.79c2.68,1,5.62.92,8.48.83l10.47-.31c3.46-.1,6.91-.22,10.37-.33l3.92-.12a5.79,5.79,0,0,1,2.38.64,2.56,2.56,0,0,1,1.27,1.72,4.24,4.24,0,0,1,0,2.18,3.25,3.25,0,0,1-.94,1.67,3.58,3.58,0,0,1-2.12.66,19.1,19.1,0,0,1-4.95-.25l-.15,0A39.83,39.83,0,0,0,73,35.63a10.45,10.45,0,0,0-4.2.89A8.44,8.44,0,0,0,67,37.63a8.09,8.09,0,0,0-1.32,1.6,9.61,9.61,0,0,1-.89,1.11c-1,1-2.88,1.81-4.24,1.09-1.59-.85-3.35.44-4.73-1a6.77,6.77,0,0,1-1.29-2.75l-.81-2.71a.84.84,0,0,0-.34-.56A.93.93,0,0,0,53,34.3l-11.1.52c-.49,0-1,0-1.48,0a1.19,1.19,0,0,0-.74.19,2,2,0,0,0-.6.51c-.1.16-.16.3-.28.46a2.51,2.51,0,0,1-.46-.32c-.09-.07-.14-.19-.24-.26a.56.56,0,0,0-.42-.06l-1.12.08-1.46.07a8.28,8.28,0,0,1-1.41-.06,5,5,0,0,0-.77-.06l-2.74.72c2.21,3.56,3.11,7.7,3.7,11.84a50.29,50.29,0,0,1,.51,6.72c0,.87-.16,1.8-.21,2.68-.05,1.12-.11,2.23-.17,3.34a12.77,12.77,0,0,1-5.1-10.76c.11-2.1.75-4.2.4-6.27-.15-.94-.51-1.84-.7-2.78a4.44,4.44,0,0,1,0-1.92c.21-.86.78-2.38-.36-2.89q-.62,2.67-1.24,5.34a6,6,0,0,1-4.78-3.61c1.55-.41,2.23-2.23,2.33-3.83a3.64,3.64,0,0,0-.69-2.72,4.06,4.06,0,0,0-1.91-1A41.35,41.35,0,0,0,4.07,28.66l-.4.06A5.76,5.76,0,0,0,1,29.63a2.15,2.15,0,0,0-.79,2.54,2.52,2.52,0,0,0,1,1A6.4,6.4,0,0,0,4.68,34a7.86,7.86,0,0,0,1.61,0c.74-.18,1.3-.27,1.06-.59-1.63-.07-6-.61-5.94-1.84.77-2.14,2.86-1.86,4.37-1.67,2.58.33,5,1.7,7.6,1.74,1.95,0,4-.67,5.83.17a11,11,0,0,1,3.66,3.45c-1.72.33-7.77.89-8.26,3.24-.4,2,1.95,2.19,3.4,2.81,2.85,1.21,5.72,2.34,8.54,3.6a2.17,2.17,0,0,1,.95,1.34,4.45,4.45,0,0,1,.09,2c-1.27,6,1.59,10.41,5.18,14.64.59.7,1.41,1.59,1.4,2.38-.07,3.78,3.08,4.66,5.46,5.65a10.07,10.07,0,0,1,3.73,2.58c2.83,3,6.62,4.83,9.29,7.95.36.42.79.89,1.34.86A9.32,9.32,0,0,0,55,82c1.38-.26,6.78-2.43,9.41-3.1.36-.1.92,0,.89.33a.62.62,0,0,1-.28.4c-.73.57-1.47,1.14-2.17,1.74a15.56,15.56,0,0,0,5.78-2.63,3.32,3.32,0,0,0,1.27-1.36,3.68,3.68,0,0,0-.44-2.81c-1.48-3.14-2.88-6.33-4.32-9.49L63,60.31c-.74-1.63-1.43-3.29-2.11-5-.34-.84-.68-1.68-1-2.52s-.68-1.44-1-2.17L57.71,47.8a4.57,4.57,0,0,1-.6-2.71c.15-.63,1-.67,1.5-.72s1-.07,1.45-.1a3.29,3.29,0,0,1,1,0,13.32,13.32,0,0,0,3,.31,4.86,4.86,0,0,0,3.24-1.29c1.53-1.54,1.49-4.26,3.21-5.6A5.32,5.32,0,0,1,74.66,37c.78.13,1.54.31,2.32.43s1.48.07,2.2.17c1.67.22,3.38.28,5.06.37a5.45,5.45,0,0,0,3.3-.54,4.11,4.11,0,0,0,1.56-3A4.35,4.35,0,0,0,88.3,31.21Zm-69.43,9a6.16,6.16,0,0,1-2.5-1.52c1-1.9,2.65-1.56,4.43-1.25C20.73,38.87,21,40.54,18.87,40.18ZM37.44,68a3.16,3.16,0,0,1-.57-2.06,4.81,4.81,0,0,0,.07-.92c0-.52-.5-.7-.73-1.12a7.11,7.11,0,0,1-.63-1.72,18.35,18.35,0,0,1-.39-3.77A178,178,0,0,0,33,36.19c1.35.35,3.81.61,3.81.7-.19,5.22,2,10.22,3,15.29,1.15,5.76,2,11.61,3,17.4C41,69.61,38.62,69.64,37.44,68ZM49.9,74.93l-.64.2c-2-2.49-5.49-3.49-5.5-7.87A75.42,75.42,0,0,0,42,53.7c-.67-3.53-1.82-7-2.84-10.46-.93-3.18-.52-5.12,1.84-6.77.27.7.51,1.15.64,1.64,2.76,11,5.54,22.09,8.23,33.15A16.05,16.05,0,0,1,49.9,74.93Zm7.17-26.5a15.27,15.27,0,0,0,1.29,3.1s6.78,16,10.21,24.54a14.08,14.08,0,0,0-3.15-.4c-2.68.31-5.5.37-8,1.32-3,1.17-4.36,1-5.07-2.18-2-8.81-3.84-17.65-5.85-26.46C45.91,45.61,45,42.94,44,39.63c1.1-2,5.48-3.65,8.42-2.26.79.37,1.12,1.72,1.66,2.62A10.51,10.51,0,0,1,52,41c-1.24.31-2.52.43-3.93.65.14,1.16.25,2.13.35,3a5.92,5.92,0,0,0,.69.25,1.84,1.84,0,0,0,.52,0c2.24-.15,5.19-1.41,6.6,1A10.57,10.57,0,0,1,57.07,48.43Z"/><path class="cls-3" d="M4.22,36.89a34.56,34.56,0,0,0-.55,4.56C3.59,55.15,8.6,69,19.94,77.39a39.85,39.85,0,0,0,6.85,4,42.17,42.17,0,0,0,8.15,2.79,25.1,25.1,0,0,0,9.71.72,4.26,4.26,0,0,0,1.44-.31c-.1-.2-.64-.12-.84-.15s-.64-.08-1-.12c-.66-.09-1.32-.2-2-.31a30.14,30.14,0,0,1-4.21-.94,50.63,50.63,0,0,1-8.34-3.23C21.82,76.09,15.17,70.58,11,62.77,6.81,54.81,5,45.79,4.22,36.89Z"/><path class="cls-3" d="M10.05,22.55c.11-.17.23-.34.35-.5,1-1.28,1.56-1.93,2.9-3.58.76-.93,1.66-1.72,2.45-2.63s1.8-1.94,2.77-2.84a37.9,37.9,0,0,1,4.09-3.28,44.11,44.11,0,0,1,4.58-2.5,42.34,42.34,0,0,1,9-3.53,45.64,45.64,0,0,1,25.89.72l.12,0c-.23-.07-.62-.56-.85-.71a10.2,10.2,0,0,0-1.81-.83,38.28,38.28,0,0,0-4.19-1.53,40.31,40.31,0,0,0-21.84.26A39.89,39.89,0,0,0,13.88,14.36c-.6.73-1.14,1.5-1.73,2.24A23.07,23.07,0,0,0,7.2,26.88c0-.12.3-.41.37-.51.51-.71,1-1.44,1.47-2.17C9.39,23.67,9.7,23.08,10.05,22.55Z"/><path class="cls-3" d="M73.78,73.43c6.58-3.42,14.81-23,12.34-29.72C84.58,54.69,80.89,64.77,73.78,73.43Z"/></g></svg>